<?xml version="1.0" encoding="utf-8"?>
<!-- Generator: Adobe Illustrator 19.1.1, SVG Export Plug-In . SVG Version: 6.00 Build 0)  -->
<svg version="1.0" id="Layer_1" xmlns="http://www.w3.org/2000/svg" xmlns:xlink="http://www.w3.org/1999/xlink" x="0px" y="0px"
	 viewBox="0 0 298.52 386.568" enable-background="new 0 0 298.52 386.568" xml:space="preserve">
<g opacity="0.25">
	<circle fill="none" stroke="#FFFFFF" stroke-width="0.25" cx="150.855" cy="273.708" r="112.735"/>
	<circle fill="none" stroke="#FFFFFF" stroke-width="0.25" cx="149.94" cy="148.58" r="148.455"/>
	<path fill="#FFFFFF" d="M3.96,180.288c2.187,0,3.96-1.773,3.96-3.96s-1.773-3.96-3.96-3.96c-2.187,0-3.96,1.773-3.96,3.96
		S1.773,180.288,3.96,180.288"/>
	<path fill="#FFFFFF" d="M52.2,220.608c0.994,0,1.8-0.806,1.8-1.8s-0.806-1.8-1.8-1.8c-0.994,0-1.8,0.806-1.8,1.8
		S51.206,220.608,52.2,220.608"/>
	<path fill="#FFFFFF" d="M61.584,207.918c1.765,0,3.195-1.43,3.195-3.195s-1.43-3.195-3.195-3.195c-1.765,0-3.195,1.43-3.195,3.195
		S59.819,207.918,61.584,207.918"/>
	<path opacity="0.5" fill="#FFFFFF" d="M55.44,188.928c3.38,0,6.12-2.74,6.12-6.12s-2.74-6.12-6.12-6.12
		c-3.38,0-6.12,2.74-6.12,6.12S52.06,188.928,55.44,188.928"/>
	<path opacity="0.5" fill="#FFFFFF" d="M45.36,184.968c6.362,0,11.52-5.158,11.52-11.52s-5.158-11.52-11.52-11.52
		c-6.362,0-11.52,5.158-11.52,11.52S38.998,184.968,45.36,184.968"/>
	<path fill="#FFFFFF" d="M40.743,250.704c0.756,0,1.368-0.612,1.368-1.368c0-0.756-0.612-1.368-1.368-1.368
		c-0.756,0-1.368,0.612-1.368,1.368C39.375,250.092,39.987,250.704,40.743,250.704"/>
	<path fill="#FFFFFF" d="M135,298.458c1.243,0,2.25-1.007,2.25-2.25c0-1.243-1.007-2.25-2.25-2.25c-1.243,0-2.25,1.007-2.25,2.25
		C132.75,297.451,133.757,298.458,135,298.458"/>
</g>
</svg>
