<?xml version="1.0" encoding="utf-8"?>
<!-- Generator: Adobe Illustrator 20.1.0, SVG Export Plug-In . SVG Version: 6.00 Build 0)  -->
<svg version="1.1" id="Layer_1" xmlns="http://www.w3.org/2000/svg" xmlns:xlink="http://www.w3.org/1999/xlink" x="0px" y="0px"
	 viewBox="0 0 298.5 386.6" style="enable-background:new 0 0 298.5 386.6;" xml:space="preserve">
<style type="text/css">
	.st0{opacity:0.25;}
	.st1{fill:none;stroke:#231F20;stroke-width:0.25;}
	.st2{fill:#231F20;}
	.st3{opacity:0.5;fill:#231F20;enable-background:new    ;}
</style>
<g class="st0">
	<circle class="st1" cx="150.9" cy="273.7" r="112.7"/>
	<circle class="st1" cx="149.9" cy="148.6" r="148.5"/>
	<path class="st2" d="M4,180.3c2.2,0,4-1.8,4-4s-1.8-4-4-4s-4,1.8-4,4S1.8,180.3,4,180.3"/>
	<path class="st2" d="M52.2,220.6c1,0,1.8-0.8,1.8-1.8s-0.8-1.8-1.8-1.8s-1.8,0.8-1.8,1.8S51.2,220.6,52.2,220.6"/>
	<path class="st2" d="M61.6,207.9c1.8,0,3.2-1.4,3.2-3.2s-1.4-3.2-3.2-3.2s-3.2,1.4-3.2,3.2S59.8,207.9,61.6,207.9"/>
	<path class="st3" d="M55.4,188.9c3.4,0,6.1-2.7,6.1-6.1s-2.7-6.1-6.1-6.1c-3.4,0-6.1,2.7-6.1,6.1S52.1,188.9,55.4,188.9"/>
	<path class="st3" d="M45.4,185c6.4,0,11.5-5.2,11.5-11.5s-5.2-11.5-11.5-11.5s-11.5,5.2-11.5,11.5S39,185,45.4,185"/>
	<path class="st2" d="M40.7,250.7c0.8,0,1.4-0.6,1.4-1.4s-0.6-1.4-1.4-1.4s-1.4,0.6-1.4,1.4S40,250.7,40.7,250.7"/>
	<path class="st2" d="M135,298.5c1.2,0,2.3-1,2.3-2.3s-1-2.3-2.3-2.3s-2.3,1-2.3,2.3C132.8,297.5,133.8,298.5,135,298.5"/>
</g>
</svg>
